<svg xmlns="http://www.w3.org/2000/svg" version="1.1" xmlns:xlink="http://www.w3.org/1999/xlink" xmlns:svgjs="http://svgjs.dev/svgjs" width="1000" height="305" viewBox="0 0 1000 305"><g transform="matrix(1,0,0,1,-0.6060606060606233,-0.6165527545085467)"><svg viewBox="0 0 396 121" data-background-color="#ffffff" preserveAspectRatio="xMidYMid meet" height="305" width="1000" xmlns="http://www.w3.org/2000/svg" xmlns:xlink="http://www.w3.org/1999/xlink"><g id="tight-bounds" transform="matrix(1,0,0,1,0.2400000000000091,0.24459961736241098)"><svg viewBox="0 0 395.52 120.51080076527515" height="120.51080076527515" width="395.52"><g><svg viewBox="0 0 691.4674691719267 210.68289445046292" height="120.51080076527515" width="395.52"><g transform="matrix(1,0,0,1,295.9474691719268,54.52550548609425)"><svg viewBox="0 0 395.52 101.63188347827443" height="101.63188347827443" width="395.52"><g id="textblocktransform"><svg viewBox="0 0 395.52 101.63188347827443" height="101.63188347827443" width="395.52" id="textblock"><g><svg viewBox="0 0 395.52 54.81538161233651" height="54.81538161233651" width="395.52"><g transform="matrix(1,0,0,1,0,0)"><svg width="395.52" viewBox="2 -35.5 261.1400146484375 35.5" height="54.81538161233651" data-palette-color="#1d6320"><g class="undefined-text-0" data-fill-palette-color="primary" id="text-0"><path d="M9.7 0L9.7 0Q8.45 0 6.08 0 3.7 0 2.85-0.35 2-0.7 2-1.45L2-1.45 2-33Q2-34.15 5.08-34.83 8.15-35.5 11.65-35.5 15.15-35.5 16.65-34.6 18.15-33.7 18.4-32.7L18.4-32.7 21.8-19.5 22.25-19.5 25.45-32.1Q25.8-33.45 28.73-34.48 31.65-35.5 35.15-35.5 38.65-35.5 40.33-34.95 42-34.4 42-33.55L42-33.55 42-1.45Q42-0.8 39.15-0.4 36.3 0 32.2 0 28.1 0 28.1-1.45L28.1-1.45Q28.1-5.4 28.95-15.5L28.95-15.5 28.5-15.5 25.9-2.45Q25.75-1.7 24.68-1.35 23.6-1 21.45-1 19.3-1 18.82-1.3 18.35-1.6 18.2-2.45L18.2-2.45 15.5-15.5 15.05-15.5Q15.95-5.2 15.95-1.45L15.95-1.45Q15.95-0.15 9.7 0ZM59.8-2.55Q59.7-1.1 58.27-0.55 56.85 0 53.15 0 49.45 0 46.97-0.68 44.5-1.35 44.5-2.4L44.5-2.4Q44.5-3.6 48.95-17.73 53.4-31.85 54.05-34L54.05-34Q54.3-34.65 58.07-35.08 61.85-35.5 66.17-35.5 70.5-35.5 70.95-34L70.95-34Q80.4-2.6 80.4-2.1 80.4-1.6 79.8-1.1L79.8-1.1Q78.4 0 74.25 0L74.25 0Q65.4 0 65.2-2.1L65.2-2.1 64.85-5.35 60.05-5.35 59.8-2.55ZM61.1-14.85L63.8-14.85 63.05-23.85 61.95-23.85 61.1-14.85ZM104.15-1.2Q104.15-0.65 101.07-0.33 98 0 94.92 0 91.85 0 91.02-0.28 90.2-0.55 90.2-1.2L90.2-1.2 90.2-22.7 83.25-22.7Q82.7-22.7 82.3-24.1 81.9-25.5 81.9-28.28 81.9-31.05 82.5-33.27 83.1-35.5 84.1-35.5L84.1-35.5 111.15-35.5Q111.9-35.5 112.17-34.1 112.45-32.7 112.45-30.05 112.45-27.4 111.9-25.05 111.35-22.7 110.4-22.7L110.4-22.7 104.15-22.7 104.15-1.2ZM136.69-1.2Q136.69-0.65 133.62-0.33 130.54 0 127.47 0 124.39 0 123.57-0.28 122.74-0.55 122.74-1.2L122.74-1.2 122.74-22.7 115.79-22.7Q115.24-22.7 114.84-24.1 114.44-25.5 114.44-28.28 114.44-31.05 115.04-33.27 115.64-35.5 116.64-35.5L116.64-35.5 143.69-35.5Q144.44-35.5 144.72-34.1 144.99-32.7 144.99-30.05 144.99-27.4 144.44-25.05 143.89-22.7 142.94-22.7L142.94-22.7 136.69-22.7 136.69-1.2ZM161.94-1.45Q161.94-0.8 158.92-0.4 155.89 0 152.82 0 149.74 0 148.87-0.35 147.99-0.7 147.99-1.45L147.99-1.45 147.99-32.2Q147.99-33.45 150.89-34.48 153.79-35.5 157.19-35.5L157.19-35.5Q161.94-35.5 161.94-33.25L161.94-33.25 161.94-22.25 166.39-22.25 166.39-32.2Q166.39-33.45 169.32-34.48 172.24-35.5 175.64-35.5L175.64-35.5Q180.34-35.5 180.34-33.25L180.34-33.25 180.34-1.45Q180.34-0.8 177.29-0.4 174.24 0 171.19 0 168.14 0 167.27-0.35 166.39-0.7 166.39-1.45L166.39-1.45 166.39-12.9 161.94-12.9 161.94-1.45ZM209.69 0L209.69 0 188.49 0Q186.04 0 185.19-0.35 184.34-0.7 184.34-1.45L184.34-1.45 184.34-33.1Q184.34-34.4 185.51-34.95 186.69-35.5 189.74-35.5L189.74-35.5 209.84-35.5Q210.89-35.5 210.89-32.02 210.89-28.55 210.44-26.73 209.99-24.9 209.24-24.9L209.24-24.9Q205.99-24.9 198.29-25.55L198.29-25.55 198.29-22.2Q205.69-22.5 207.94-22.5L207.94-22.5Q209.29-22.5 209.29-19.35 209.29-16.2 208.76-14.58 208.24-12.95 207.34-12.95L207.34-12.95 198.29-13.15 198.29-9.95Q206.99-10.6 210.29-10.6L210.29-10.6Q211.34-10.6 211.34-7.1 211.34-3.6 210.89-1.8 210.44 0 209.69 0ZM228.59 0L228.59 0Q226.19 0 225.44-0.35 224.69-0.7 224.39-1.55L224.39-1.55 213.34-32.05Q213.34-33 216.91-34.25 220.49-35.5 224.14-35.5L224.14-35.5Q228.84-35.5 229.14-32.55L229.14-32.55 230.84-16.7 231.54-16.7 232.94-32.55Q233.19-35.5 239.69-35.5L239.69-35.5Q242.19-35.5 243.04-34.83 243.89-34.15 243.99-33.05L243.99-33.05 245.64-16.7 246.34-16.7 247.64-32.55Q247.79-34 251.06-34.75 254.34-35.5 257.56-35.5 260.79-35.5 261.96-34.55 263.14-33.6 263.14-32.55L263.14-32.55 252.44-1.55Q251.89 0 245.04 0L245.04 0Q242.99 0 242.29-0.35 241.59-0.7 241.34-1.55L241.34-1.55 238.74-10.25 238.14-10.25 235.49-1.55Q235.04 0 228.59 0Z" fill="#1d6320" data-fill-palette-color="primary"></path></g></svg></g></svg></g><g transform="matrix(1,0,0,1,0,67.75597764185046)"><svg viewBox="0 0 395.52 33.87590583642396" height="33.87590583642396" width="395.52"><g transform="matrix(1,0,0,1,0,0)"><svg width="395.52" viewBox="2 -36 425.57000732421875 36.45000076293945" height="33.87590583642396" data-palette-color="#afd53d"><path d="M17.95 0L17.95 0 6.15 0Q3.7 0 2.85-0.35 2-0.7 2-1.5L2-1.5 2-33.05Q2-34.35 3.1-34.93 4.2-35.5 6.9-35.5L6.9-35.5 18.15-35.5Q27.75-35.5 31.4-31.73 35.05-27.95 35.05-18 35.05-8.05 31.25-4.03 27.45 0 17.95 0ZM17.55-28.05L17.55-28.05Q16.35-28.05 15.95-27.85L15.95-27.85 15.95-7.65 17.85-7.45Q19.35-7.45 20.13-9.85 20.9-12.25 20.9-18.15 20.9-24.05 20.1-26.05 19.3-28.05 17.55-28.05ZM79.84 0L79.84 0 58.64 0Q56.19 0 55.34-0.35 54.49-0.7 54.49-1.45L54.49-1.45 54.49-33.1Q54.49-34.4 55.67-34.95 56.84-35.5 59.89-35.5L59.89-35.5 79.99-35.5Q81.04-35.5 81.04-32.02 81.04-28.55 80.59-26.73 80.14-24.9 79.39-24.9L79.39-24.9Q76.14-24.9 68.44-25.55L68.44-25.55 68.44-22.2Q75.84-22.5 78.09-22.5L78.09-22.5Q79.44-22.5 79.44-19.35 79.44-16.2 78.92-14.58 78.39-12.95 77.49-12.95L77.49-12.95 68.44-13.15 68.44-9.95Q77.14-10.6 80.44-10.6L80.44-10.6Q81.49-10.6 81.49-7.1 81.49-3.6 81.04-1.8 80.59 0 79.84 0ZM99.43-31.95L99.43-31.95Q99.43-32.55 100.73-33.38 102.03-34.2 104.41-34.85 106.78-35.5 109.58-35.5 112.38-35.5 113.68-34.7 114.98-33.9 115.08-32.95L115.08-32.95 116.83-14.75 117.53-14.75 119.08-32.5Q119.23-33.9 122.48-34.7 125.73-35.5 128.53-35.5 131.33-35.5 132.68-35.02 134.03-34.55 134.41-34.05 134.78-33.55 134.78-33.13 134.78-32.7 134.06-30.78 133.33-28.85 132.53-26.65L132.53-26.65Q129.88-19.65 123.58-1.55L123.58-1.55Q123.03 0 114.98 0L114.98 0Q112.48 0 111.68-0.35 110.88-0.7 110.58-1.55L110.58-1.55Q107.63-10.05 103.53-20.85 99.43-31.65 99.43-31.95ZM178.57 0L178.57 0 157.37 0Q154.92 0 154.07-0.35 153.22-0.7 153.22-1.45L153.22-1.45 153.22-33.1Q153.22-34.4 154.4-34.95 155.57-35.5 158.62-35.5L158.62-35.5 178.72-35.5Q179.77-35.5 179.77-32.02 179.77-28.55 179.32-26.73 178.87-24.9 178.12-24.9L178.12-24.9Q174.87-24.9 167.17-25.55L167.17-25.55 167.17-22.2Q174.57-22.5 176.82-22.5L176.82-22.5Q178.17-22.5 178.17-19.35 178.17-16.2 177.65-14.58 177.12-12.95 176.22-12.95L176.22-12.95 167.17-13.15 167.17-9.95Q175.87-10.6 179.17-10.6L179.17-10.6Q180.22-10.6 180.22-7.1 180.22-3.6 179.77-1.8 179.32 0 178.57 0ZM222.21 0L203.86 0Q201.36 0 200.51-0.28 199.66-0.55 199.66-1.2L199.66-1.2 199.66-32.3Q199.66-33.4 202.56-34.48 205.46-35.55 209.06-35.55L209.06-35.55Q212.26-35.55 213.26-34.2L213.26-34.2Q213.61-33.7 213.61-33.2L213.61-33.2 213.61-11.05Q219.71-11.45 222.81-11.45L222.81-11.45Q223.86-11.45 223.86-8.13 223.86-4.8 223.41-2.4 222.96 0 222.21 0L222.21 0ZM259.7 0.45L259.7 0.45Q255.55 0.45 252.58-0.33 249.6-1.1 247.1-3.1L247.1-3.1Q242.05-7.05 242.05-18.25L242.05-18.25Q242.05-22.95 243.43-26.45 244.8-29.95 247.25-32L247.25-32Q252.05-36 259.7-36L259.7-36Q263.65-36 266.58-35.3 269.5-34.6 272.1-32.75L272.1-32.75Q277.35-28.95 277.35-18.25L277.35-18.25Q277.35-8.65 272.6-4.1 267.85 0.45 259.7 0.45ZM258.05-8.13Q258.65-7.4 259.7-7.4 260.75-7.4 261.35-8.13 261.95-8.85 262.35-11.23 262.75-13.6 262.75-17.85 262.75-22.1 262.35-24.4 261.95-26.7 261.35-27.4 260.75-28.1 259.7-28.1 258.65-28.1 258.05-27.4 257.45-26.7 257.05-24.4 256.65-22.1 256.65-17.85 256.65-13.6 257.05-11.23 257.45-8.85 258.05-8.13ZM310.44-9.05L310.44-1.45Q310.44-0.8 307.39-0.4 304.34 0 301.29 0 298.24 0 297.39-0.35 296.54-0.7 296.54-1.45L296.54-1.45 296.54-33.6Q296.54-36 310.94-36L310.94-36Q319.64-36 322.44-34.8L322.44-34.8Q325.84-33.4 327.04-31L327.04-31Q328.64-27.9 328.64-23.05L328.64-23.05Q328.64-16.4 326.34-13.4L326.34-13.4Q324.69-11.2 323.04-10.55 321.39-9.9 320.32-9.63 319.24-9.35 317.64-9.2L317.64-9.2Q315.44-9 311.64-9L311.64-9 310.44-9.05ZM310.49-27.6L310.49-17.35 311.69-17.35Q312.64-17.35 313.19-17.63 313.74-17.9 314.17-19.13 314.59-20.35 314.59-22.58 314.59-24.8 314.12-25.98 313.64-27.15 313.17-27.38 312.69-27.6 312.04-27.6L312.04-27.6 310.49-27.6ZM373.18 0L373.18 0 351.98 0Q349.53 0 348.68-0.35 347.83-0.7 347.83-1.45L347.83-1.45 347.83-33.1Q347.83-34.4 349.01-34.95 350.18-35.5 353.23-35.5L353.23-35.5 373.33-35.5Q374.38-35.5 374.38-32.02 374.38-28.55 373.93-26.73 373.48-24.9 372.73-24.9L372.73-24.9Q369.48-24.9 361.78-25.55L361.78-25.55 361.78-22.2Q369.18-22.5 371.43-22.5L371.43-22.5Q372.78-22.5 372.78-19.35 372.78-16.2 372.26-14.58 371.73-12.95 370.83-12.95L370.83-12.95 361.78-13.15 361.78-9.95Q370.48-10.6 373.78-10.6L373.78-10.6Q374.83-10.6 374.83-7.1 374.83-3.6 374.38-1.8 373.93 0 373.18 0ZM408.27-11.7L408.27-1.45Q408.27-0.8 405.22-0.4 402.17 0 399.1 0 396.02 0 395.15-0.35 394.27-0.7 394.27-1.45L394.27-1.45 394.27-33.6Q394.27-34.9 397.55-35.45 400.82-36 405.82-36 410.82-36 412.3-35.98 413.77-35.95 415.77-35.8 417.77-35.65 418.95-35.3 420.12-34.95 421.55-34.4 422.97-33.85 423.77-32.98 424.57-32.1 425.32-30.9L425.32-30.9Q426.67-28.75 426.67-24.78 426.67-20.8 425.35-18.07 424.02-15.35 421.82-13.95L421.82-13.95Q427.57-4.9 427.57-2.45 427.57 0 417.72 0L417.72 0Q414.87 0 413.77-0.25 412.67-0.5 412.37-1.35L412.37-1.35 409.12-11.65 408.27-11.7ZM408.27-28.1L408.27-19.4 409.57-19.4Q412.47-19.4 412.47-23.9L412.47-23.9Q412.47-26.2 411.7-27.15 410.92-28.1 409.92-28.1L409.92-28.1 408.27-28.1Z" opacity="1" transform="matrix(1,0,0,1,0,0)" fill="#afd53d" class="undefined-text-1" data-fill-palette-color="secondary" id="text-1"></path></svg></g></svg></g></svg></g></svg></g><g><svg viewBox="0 0 283.00687314241287 210.68289445046292" height="210.68289445046292" width="283.00687314241287"><g><svg xmlns="http://www.w3.org/2000/svg" xmlns:xlink="http://www.w3.org/1999/xlink" version="1.1" x="0" y="0" viewBox="5 16.5 90 67" enable-background="new 0 0 100 100" xml:space="preserve" height="210.68289445046292" width="283.00687314241287" class="icon-icon-0" data-fill-palette-color="accent" id="icon-0"><g fill="#1d6320" data-fill-palette-color="accent"><path d="M5 17.5v65c0 0.552 0.448 1 1 1h88c0.552 0 1-0.448 1-1v-65c0-0.552-0.448-1-1-1H6C5.448 16.5 5 16.948 5 17.5zM91 79.5H9v-54h82V79.5z" fill="#1d6320" data-fill-palette-color="accent"></path><g fill="#1d6320" data-fill-palette-color="accent"><path d="M65.079 63.011c-0.443 0-0.887-0.169-1.225-0.507-0.677-0.676-0.677-1.773 0-2.45l8.214-8.215-8.214-8.215c-0.677-0.676-0.677-1.773 0-2.45 0.676-0.676 1.773-0.676 2.449 0l9.439 9.439c0.677 0.676 0.677 1.773 0 2.45l-9.439 9.439C65.965 62.842 65.522 63.011 65.079 63.011z" fill="#1d6320" data-fill-palette-color="accent"></path></g><g fill="#1d6320" data-fill-palette-color="accent"><path d="M34.671 63.011c0.443 0 0.887-0.169 1.225-0.507 0.677-0.676 0.677-1.773 0-2.45l-8.214-8.215 8.214-8.215c0.677-0.676 0.677-1.773 0-2.45-0.676-0.676-1.773-0.676-2.449 0l-9.439 9.439c-0.677 0.676-0.677 1.773 0 2.45l9.439 9.439C33.785 62.842 34.228 63.011 34.671 63.011z" fill="#1d6320" data-fill-palette-color="accent"></path></g><circle fill="#1d6320" cx="10.602" cy="21.034" r="1.5" data-fill-palette-color="accent"></circle><circle fill="#1d6320" cx="15.716" cy="21.034" r="1.5" data-fill-palette-color="accent"></circle><circle fill="#1d6320" cx="20.83" cy="21.034" r="1.5" data-fill-palette-color="accent"></circle><g fill="#1d6320" data-fill-palette-color="accent"><path d="M40.708 60.584c-0.503-0.086-0.87-0.209-1.101-0.366-0.232-0.158-0.348-0.387-0.348-0.686 0-0.299 0.081-0.718 0.243-1.253 0.162-0.536 0.398-0.819 0.707-0.85 0.03 0 0.181 0.032 0.452 0.094 0.27 0.063 0.552 0.094 0.846 0.094 0.695 0 1.194-0.192 1.495-0.579 0.302-0.386 0.452-1.013 0.452-1.88V44.687c0-0.52 0.464-0.78 1.391-0.78h0.811c0.927 0 1.391 0.26 1.391 0.78v11.064c0 1.56-0.403 2.777-1.205 3.652-0.805 0.874-2.04 1.312-3.71 1.312C41.685 60.715 41.21 60.671 40.708 60.584z" fill="#1d6320" data-fill-palette-color="accent"></path><path d="M49.555 58.635c0-0.363 0.177-0.804 0.533-1.324 0.356-0.52 0.656-0.78 0.904-0.78 0.093 0 0.293 0.087 0.603 0.26 0.958 0.552 1.893 0.827 2.805 0.827 1.452 0 2.179-0.575 2.179-1.726 0-0.504-0.232-0.929-0.695-1.276-0.464-0.346-1.024-0.65-1.681-0.91-0.656-0.261-1.309-0.56-1.959-0.898-0.649-0.339-1.204-0.863-1.668-1.572-0.464-0.71-0.695-1.596-0.695-2.66 0-1.064 0.278-1.974 0.834-2.731 1.004-1.371 2.558-2.057 4.659-2.057 1.174 0 2.164 0.174 2.967 0.52 0.804 0.346 1.205 0.725 1.205 1.135 0 0.346-0.147 0.776-0.44 1.288-0.293 0.513-0.572 0.769-0.835 0.769-0.061 0-0.201-0.056-0.417-0.165-0.619-0.284-1.333-0.426-2.144-0.426-0.812 0-1.376 0.142-1.692 0.426-0.317 0.284-0.475 0.638-0.475 1.064 0 0.425 0.232 0.803 0.695 1.134 0.464 0.331 1.02 0.623 1.668 0.874 0.65 0.253 1.303 0.548 1.959 0.887 0.656 0.34 1.217 0.863 1.681 1.572 0.463 0.71 0.695 1.557 0.695 2.541 0 0.985-0.151 1.829-0.452 2.53-0.302 0.701-0.715 1.25-1.24 1.643-1.02 0.756-2.271 1.135-3.755 1.135-1.484 0-2.728-0.229-3.732-0.686C50.057 59.572 49.555 59.107 49.555 58.635z" fill="#1d6320" data-fill-palette-color="accent"></path></g></g></svg></g></svg></g></svg></g><defs></defs></svg><rect width="395.52" height="120.51080076527515" fill="none" stroke="none" visibility="hidden"></rect></g></svg></g></svg>